HIERARCHY
ROOT MidHip
{
    OFFSET 0.0 0.0 0.0
    CHANNELS 6 Xposition Yposition Zposition Zrotation Xrotation Yrotation
    JOINT Spine
    {
        OFFSET 0.0 0.0 15.164688432820208
        CHANNELS 3 Zrotation Xrotation Yrotation
        JOINT MidShoulder
        {
            OFFSET 0.0 0.0 15.164688432820213
            CHANNELS 3 Zrotation Xrotation Yrotation
            JOINT Nose
            {
                OFFSET 0.0 0.0 11.034449089197354
                CHANNELS 3 Zrotation Xrotation Yrotation
                End Site
                {
                    OFFSET 0.0 0.0 4.413779635678941
                }
            }
            JOINT RightShoulder
            {
                OFFSET -8.835656678365867 0.0 0.0
                CHANNELS 3 Zrotation Xrotation Yrotation
                JOINT RightElbow
                {
                    OFFSET -12.95266075220992 0.0 0.0
                    CHANNELS 3 Zrotation Xrotation Yrotation
                    JOINT RightWrist
                    {
                        OFFSET -10.922302618104233 0.0 0.0
                        CHANNELS 3 Zrotation Xrotation Yrotation
                        End Site
                        {
                            OFFSET -3.089293698973234 3.089293698973234 0.0
                        }
                        End Site
                        {
                            OFFSET -4.3689210472416935 0.0 0.0
                        }
                        End Site
                        {
                            OFFSET -3.089293698973234 -3.089293698973234 0.0
                        }
                    }
                }
            }
            JOINT LeftShoulder
            {
                OFFSET 8.835656678365867 0.0 0.0
                CHANNELS 3 Zrotation Xrotation Yrotation
                JOINT LeftElbow
                {
                    OFFSET 12.95266075220992 0.0 0.0
                    CHANNELS 3 Zrotation Xrotation Yrotation
                    JOINT LeftWrist
                    {
                        OFFSET 10.922302618104233 0.0 0.0
                        CHANNELS 3 Zrotation Xrotation Yrotation
                        End Site
                        {
                            OFFSET 3.089293698973234 3.089293698973234 0.0
                        }
                        End Site
                        {
                            OFFSET 4.3689210472416935 0.0 0.0
                        }
                        End Site
                        {
                            OFFSET 3.089293698973234 -3.089293698973234 0.0
                        }
                    }
                }
            }
        }
    }
    JOINT RightHip
    {
        OFFSET -5.74966966517394 0.0 0.0
        CHANNELS 3 Zrotation Xrotation Yrotation
        JOINT RightKnee
        {
            OFFSET 0.0 0.0 -19.563673130878865
            CHANNELS 3 Zrotation Xrotation Yrotation
            JOINT RightAnkle
            {
                OFFSET 0.0 0.0 -20.736082615126698
                CHANNELS 3 Zrotation Xrotation Yrotation
                End Site
                {
                    OFFSET 0.0 5.865049852960226 -5.865049852960226
                }
                End Site
                {
                    OFFSET 0.0 -5.865049852960226 -5.865049852960226
                }
            }
        }
    }
    JOINT LeftHip
    {
        OFFSET 5.74966966517394 0.0 0.0
        CHANNELS 3 Zrotation Xrotation Yrotation
        JOINT LeftKnee
        {
            OFFSET 0.0 0.0 -19.563673130878865
            CHANNELS 3 Zrotation Xrotation Yrotation
            JOINT LeftAnkle
            {
                OFFSET 0.0 0.0 -20.736082615126698
                CHANNELS 3 Zrotation Xrotation Yrotation
                End Site
                {
                    OFFSET 0.0 5.865049852960226 -5.865049852960226
                }
                End Site
                {
                    OFFSET 0.0 -5.865049852960226 -5.865049852960226
                }
            }
        }
    }
}
MOTION
Frames: 9
Frame Time: 0.03333333333333333
-2.5010115975879454 41.262195572953 -42.77924629880635 2.044583646185343 -65.235378328882 9.846503129654424 -0.9550272486752082 -10.059631112185329 -9.446932654975615 -16.929453907212082 1.5606652254262837e-15 2.3226081747320225e-16 0.0 0.0 0.0 -103.15457926824027 -58.59062269553469 -116.71512402081805 46.788572300131065 -1.3327144991718795e-16 -8.08702398795527e-16 37.558862884849034 -23.656436496265297 17.147428657381226 -117.91420179127392 -49.54321181766679 26.71911760493781 -25.4318776101492 1.0007734956588098e-14 -1.0022583781039288e-15 -30.729057565229525 -0.39469134051189614 179.76538178060034 -5.882108171510266 -47.485609269397095 6.701009286790036 9.705903478932944 32.80474349311542 -14.611962943058382 -1.9878466759146967e-16 6.361109362927031e-15 -9.939233379573486e-16 -3.857320414046389 -35.60286750301103 -34.40446349593903 -15.045026113939839 26.214459713142087 21.154859479583436 0.0 0.0 0.0
-2.16234928364821 41.18849600534079 -42.98350905539476 6.945670628994462 -64.85607071802117 14.263590469063194 -0.7984051008983079 -10.064012105004862 -7.850874732126731 -14.250431544701753 6.903761863090187e-16 -7.150274981521297e-16 7.951386703658792e-16 0.0 0.0 -67.76348431887524 -54.9761716967653 -68.48533846556373 52.05819796861078 2.5546804282152174e-15 2.5131841819225534e-15 53.97963907004828 -39.3999349863847 41.120239026661345 -106.77796513270617 -56.38502209700015 41.61105864253318 -27.16550059862712 7.729000327478561e-16 1.867379031947753e-16 -30.507962407785996 4.42816497811056 -177.39517536406152 -4.857439096057359 -47.163225030462016 8.370711941407242 9.780723221544145 32.40831349441299 -14.041143811210857 0.0 0.0 0.0 -3.4417547051312596 -37.402962997528654 -33.08454791135035 -14.967884756348052 26.456378811486275 21.182600416702194 -7.951386703658794e-16 -5.517382872562698e-33 7.951386703658794e-16
-1.9304093862179874 40.98364659178883 -43.17307055498611 11.247257020926002 -64.65500592045059 18.546757135873573 -0.706150560289946 -9.936563082708957 -7.203459998958833 -14.313715933949393 -3.501382465567931e-15 3.617331953121039e-16 0.0 0.0 0.0 -58.88397336472955 -49.79273616174719 -57.98195221816497 54.50473151190508 -2.562428670215256e-15 1.319871357618225e-15 82.1746827065249 -59.31411614601228 80.92033392888214 -95.56525056881726 -59.28235940672901 53.28293653507542 -28.931136330190693 3.2722073002947603e-15 8.441527231307474e-16 -23.78676342701279 3.8986037528857227 -178.28342611283537 -4.300720281304041 -46.828958285926674 10.133768950968632 10.545952594761228 32.513398413655196 -15.055684574157604 -3.975693351829396e-16 -4.741500906108568e-34 1.3666445896913547e-16 -3.2563828472294922 -38.91901608654195 -32.81885070579313 -15.571608065332017 27.136349576131913 21.828486817734095 0.0 0.0 0.0
-1.5287754059551635 40.88053391550331 -43.481628515333234 12.70966404875806 -64.57749472065412 20.261101573758722 -0.5969332812806285 -9.92941828309264 -6.119855236455622 -11.043120412305383 3.0803873985336697e-15 -1.0164513220205393e-16 0.0 0.0 0.0 -88.07020476412465 -53.77196280525272 -85.88982503137922 50.86782860659211 -1.0771122257437156e-15 5.122320174038912e-16 46.477140177077914 -50.647000566380434 39.15209720626507 -60.17524969032709 -60.957545003838405 89.43283307342583 -33.16277203065667 -1.815314414685876e-15 6.09658477370336e-15 -53.86489216689137 64.60234944610777 -128.94751205678517 -3.6521567712485115 -46.94556817804716 10.4571613154854 10.233415377326372 32.733752463583855 -13.46883389991175 -3.975693351829397e-16 0.0 0.0 -2.8273220727816097 -39.65265202433549 -33.40197828349835 -16.051744016316178 26.533423862218633 23.358696910875718 0.0 0.0 0.0
-1.0696374551822658 40.818084352018865 -43.62164389160513 15.466980763898967 -65.33038127694483 24.383278526866665 -0.7009573457318221 -9.050444096220685 -7.445399528664584 -9.872722528115474 -2.9459543756493592e-15 -2.544407970620027e-16 0.0 0.0 0.0 -81.62566562408438 -49.84336998959834 -80.70877326255953 53.51108302599491 -1.2033099298183301e-15 -9.51671105969541e-16 62.942000369023894 -62.56664186970553 60.07871358954165 -60.406412875091995 -56.43882714395721 91.02980085849813 -34.76028304091254 -9.500636115449831e-16 3.0353430145203682e-15 -30.187970736450165 35.33320417791642 -161.4053179751606 -4.656113331756683 -46.58531206310079 8.683110188864132 10.460775425210711 33.972732668191234 -12.417308344149156 7.951386703658792e-16 -4.827710013492361e-33 -6.957463365701443e-16 -3.506065732764501 -38.528511586371906 -34.614026358049145 -15.603895278056852 25.888814035410096 23.257898905266877 -7.951386703658792e-16 0.0 0.0
-0.8102418132882226 40.70144259227085 -44.08719289024985 28.913512366785625 -61.50867958010461 36.50460559906579 -0.15239606055275118 -9.874981938704966 -4.212662667566375 -0.7467120992285187 -1.3736576134436806e-14 3.091109396197025e-15 0.0 6.3611093629270335e-15 0.0 -36.22594919028095 -32.0120413687348 -59.87710303457078 53.36275392963638 -8.540081830355937e-15 -2.8274417739469584e-15 27.876980321858287 -6.240904956944872 3.2910313638640893 -83.80594387310374 -50.396682870340406 71.95878054712136 -35.09101829265886 1.1149477366315924e-15 7.023996864569171e-15 -62.92961606129783 54.32964455027709 -122.17410686358348 -0.8571626591264463 -44.39434639286687 17.55888258989548 11.979566582817242 31.394454923519117 -16.462810772064188 1.1927080055488188e-15 4.138037154422024e-33 3.975693351829396e-16 -0.889108585501502 -45.4424766743345 -30.594314558080967 -17.62214093778213 28.300068851104516 23.225544002902 -1.5902773407317584e-15 0.0 0.0
-0.11932911593614502 40.78269317682336 -44.386233639663466 50.25214100182349 -49.739250556404784 53.58026309915004 1.4406397953061543 -9.382364116974546 0.6630521985330639 11.96765942211672 -5.994884178439498e-15 3.826356504037916e-15 3.1805546814635168e-15 0.0 0.0 -68.71184690247468 -24.412353698103647 -63.22112634865231 63.610644065077295 2.702974492074677e-15 -1.6762628006888215e-15 74.8253064706468 -54.144295304539654 71.49796448358948 -92.80790265382548 -49.48880725993866 81.4365450671193 -34.42979557700698 7.271519845728906e-16 -1.3093587261769906e-14 -133.33548851882702 70.54035935511659 -44.980377512312614 5.319654666371912 -31.354800799189338 34.431907226679506 10.478699350074114 21.952092776515887 -23.449288155468984 -3.1805546814635168e-15 -4.4139062980501586e-32 1.5902773407317584e-15 10.025867863432936 -48.8466192557637 -7.543309625754929 -11.662737048359205 28.07415358832704 8.12778218930157 0.0 0.0 0.0
0.4550098351073128 40.848198925467585 -44.69365758145172 52.20029070975321 -49.05449660056192 54.67040716628285 1.261125281863174 -8.042212199883515 1.4124771796886935 13.494561994016296 1.5792631333653406e-15 -1.868421152683762e-16 0.0 0.0 0.0 -97.33404542338245 -19.219713128674062 -80.03745628473139 59.86306221361412 -3.5080648523383876e-15 1.3029972619457763e-14 45.17289667965185 -53.30362407564486 38.8919814414335 -83.87220577328128 -45.78391426825606 87.15017311239143 -38.39576897244528 0.0 0.0 -24.99409178628257 18.85212337027975 -171.43360419866912 5.124394165495853 -29.83000120827893 34.32618709389695 10.17852212094702 21.550576631390303 -21.34599455750246 0.0 0.0 0.0 10.030553589292484 -48.192587889101496 -6.274693882569474 -10.496081194951815 27.063273328789155 8.061717204967547 0.0 0.0 0.0
1.2655176610773038 41.15229042491503 -44.801064047379924 43.69636467344545 -56.12116187920477 46.938677274967056 0.7569291278797996 -8.198129852559104 0.9632495702186926 18.808495485997824 1.0197876607062524e-14 -1.6890242955395353e-15 3.1805546814635168e-15 0.0 0.0 -60.239914734783994 -19.179698013876497 -89.42710809445316 61.779086011182805 -7.651985797436816e-15 1.1990232482792612e-14 48.21301597342518 -42.4126574767534 37.04162084313042 -67.4338398097427 -44.941954546992946 92.19356577896409 -39.81187337658881 -3.815239950065034e-15 -8.146862511277805e-15 -55.14209288520641 53.30819256792513 -130.97845603552062 4.030752271437595 -37.47292085063944 27.41110161979038 11.649211033600823 27.98781354377918 -13.279803320252572 7.951386703658792e-16 -5.517382872562698e-33 -7.951386703658792e-16 4.9020119046393456 -42.98132151489643 -15.361369185620388 -10.255456939705196 23.226679781762332 13.994499026101515 0.0 0.0 0.0
